<?xml version="1.0" standalone="no"?>
<!DOCTYPE svg PUBLIC "-//W3C//DTD SVG 20010904//EN"
 "http://www.w3.org/TR/2001/REC-SVG-20010904/DTD/svg10.dtd">
<svg version="1.0" xmlns="http://www.w3.org/2000/svg"
 width="460.000000pt" height="460.000000pt" viewBox="0 0 460.000000 460.000000"
 preserveAspectRatio="xMidYMid meet">
<metadata>
Created by potrace 1.11, written by Peter Selinger 2001-2013
</metadata>
<g transform="translate(0.000000,460.000000) scale(0.100000,-0.100000)"
fill="#000000" stroke="none">
<path d="M2080 4538 c-36 -4 -92 -12 -125 -18 -33 -5 -76 -12 -95 -16 -94 -14
-263 -62 -365 -103 -170 -68 -322 -147 -443 -230 -30 -20 -61 -40 -70 -46 -9
-5 -19 -12 -22 -15 -3 -3 -25 -21 -48 -39 -24 -19 -55 -43 -69 -55 -48 -39
-238 -231 -268 -270 -17 -21 -45 -57 -62 -78 -34 -42 -135 -191 -164 -243 -43
-77 -120 -238 -148 -307 -34 -87 -99 -304 -107 -358 -3 -19 -8 -48 -11 -65 -8
-37 -9 -42 -19 -130 -11 -88 -11 -472 -1 -545 5 -30 12 -73 17 -95 5 -22 12
-60 15 -85 17 -115 99 -356 176 -515 70 -145 200 -353 257 -415 10 -9 31 -35
47 -56 39 -50 229 -240 279 -279 21 -16 53 -42 70 -56 64 -53 342 -229 362
-229 2 0 28 -11 57 -25 130 -64 407 -156 507 -169 37 -5 100 -15 131 -21 132
-26 477 -26 624 -1 55 9 118 20 140 23 117 16 377 105 531 181 245 120 408
238 613 442 58 58 115 116 126 130 57 70 165 219 165 227 0 5 8 18 18 29 21
25 31 41 96 168 112 216 192 464 222 683 3 26 8 57 10 68 21 109 21 430 -1
556 -2 13 -11 69 -20 124 -17 109 -44 212 -82 320 -14 39 -33 90 -41 115 -20
56 -145 302 -175 344 -12 17 -26 38 -32 47 -28 44 -55 85 -62 94 -4 6 -21 26
-36 45 -15 19 -40 50 -55 69 -39 49 -240 251 -285 286 -22 17 -53 42 -70 56
-119 98 -404 261 -524 299 -21 7 -43 16 -48 21 -20 15 -281 89 -370 105 -49 8
-101 17 -115 19 -104 19 -413 26 -530 13z"/>
</g>
</svg>
